<?xml version="1.0" standalone="no"?>
<!DOCTYPE svg PUBLIC "-//W3C//DTD SVG 20010904//EN"
 "http://www.w3.org/TR/2001/REC-SVG-20010904/DTD/svg10.dtd">
<svg version="1.0" xmlns="http://www.w3.org/2000/svg"
 width="1200.000000pt" height="1200.000000pt" viewBox="0 0 1200.000000 1200.000000"
 preserveAspectRatio="xMidYMid meet">
<metadata>
Created by potrace 1.11, written by Peter Selinger 2001-2013
</metadata>
<g transform="translate(0.000000,1200.000000) scale(0.100000,-0.100000)"
fill="#000000" stroke="none">
<path d="M5635 11989 c-1228 -80 -2361 -509 -3319 -1253 -202 -157 -340 -280
-547 -486 -488 -487 -843 -978 -1143 -1580 -340 -685 -533 -1374 -608 -2175
-17 -181 -17 -814 0 -990 78 -814 267 -1489 608 -2175 300 -602 655 -1093
1143 -1580 327 -326 641 -579 1007 -811 1154 -733 2521 -1052 3872 -904 741
82 1473 303 2122 642 1464 765 2550 2098 3000 3680 363 1274 290 2658 -202
3878 -531 1315 -1487 2380 -2743 3058 -667 360 -1460 601 -2220 676 -302 30
-695 38 -970 20z m-1040 -3342 c-9 -40 -45 -169 -80 -287 -35 -118 -74 -253
-85 -300 -35 -141 -127 -453 -195 -660 -104 -318 -126 -482 -76 -578 25 -48
175 -192 200 -192 3 0 5 52 3 116 -2 68 3 160 12 223 8 58 18 160 21 226 8
159 33 454 46 535 26 174 122 410 167 410 17 0 15 -33 -9 -113 -12 -39 -34
-134 -50 -211 -28 -137 -29 -149 -29 -441 0 -165 -5 -377 -12 -470 -10 -152
-9 -181 6 -267 14 -75 23 -102 42 -121 16 -16 75 -42 162 -71 180 -61 316
-129 429 -214 50 -38 106 -75 123 -82 57 -23 75 -8 156 135 86 150 105 204
108 318 5 147 19 308 27 313 17 10 31 -42 40 -145 5 -58 14 -135 20 -171 6
-36 10 -99 8 -140 -4 -70 -10 -87 -83 -239 -68 -141 -79 -172 -84 -230 -4 -58
-2 -68 17 -85 25 -23 40 -14 20 11 -13 15 -12 16 6 9 11 -5 29 -10 40 -12 11
-2 38 -10 61 -18 57 -21 148 -21 224 0 88 24 252 24 340 0 77 -21 179 -21 230
1 19 8 44 16 55 18 11 1 29 6 40 11 18 7 19 6 6 -9 -16 -21 -11 -30 13 -21 22
8 30 45 23 110 -4 40 -26 97 -83 215 -68 141 -77 168 -82 230 -3 39 0 101 7
138 6 36 15 116 20 177 8 106 23 160 40 150 8 -5 19 -129 27 -301 6 -134 20
-177 108 -330 82 -143 100 -158 156 -135 17 7 73 44 123 82 112 84 249 152
424 212 73 25 141 49 151 55 56 30 81 194 64 413 -7 84 -12 289 -12 454 0 329
-5 379 -61 590 -44 163 -46 187 -23 182 29 -5 110 -176 138 -288 28 -109 52
-323 67 -585 5 -99 16 -229 24 -288 8 -59 15 -162 15 -228 0 -117 0 -119 20
-109 40 21 162 144 181 183 53 103 30 265 -91 627 -32 96 -86 274 -120 395
-34 121 -86 308 -117 415 -88 305 -123 442 -123 479 0 30 2 32 17 20 31 -26
110 -158 147 -246 21 -48 65 -171 99 -272 56 -168 64 -186 92 -200 82 -43 141
-158 296 -573 113 -303 127 -346 134 -416 7 -66 -18 -177 -59 -265 -75 -157
-326 -342 -661 -485 -389 -167 -457 -211 -560 -366 -53 -81 -175 -314 -175
-337 0 -18 70 -1 115 28 22 15 121 106 220 203 261 256 240 242 574 365 219
80 311 106 311 88 0 -5 34 -7 75 -5 87 5 178 -19 263 -68 100 -58 96 -85 -44
-316 -222 -367 -336 -536 -424 -625 -78 -79 -151 -111 -375 -164 -240 -58
-282 -76 -320 -141 -31 -55 -92 -135 -112 -147 -7 -4 -13 -15 -13 -23 0 -8
-11 -27 -25 -42 -24 -25 -25 -33 -25 -142 0 -64 -5 -153 -10 -199 -25 -193
-181 -568 -309 -737 -23 -31 -57 -60 -93 -79 -75 -40 -95 -60 -102 -100 -7
-34 -15 -44 -137 -161 -102 -97 -108 -99 -289 -99 -152 0 -156 1 -203 28 -26
15 -57 42 -70 58 -12 17 -44 47 -70 66 -44 33 -87 94 -87 126 0 20 -38 51 -98
81 -39 20 -65 43 -101 92 -99 136 -228 418 -277 611 -20 77 -26 134 -31 265
-6 157 -7 168 -29 192 -13 14 -24 30 -24 37 0 6 -20 33 -45 61 -24 27 -59 74
-76 105 -41 72 -77 88 -323 148 -109 26 -216 58 -255 77 -130 62 -220 179
-552 722 -132 216 -135 246 -39 304 84 50 176 75 265 70 41 -2 75 0 75 5 0 18
93 -8 311 -88 335 -123 310 -107 584 -375 105 -102 207 -193 227 -203 50 -24
98 -33 98 -18 0 24 -112 240 -169 327 -108 163 -169 205 -508 350 -227 97
-269 119 -410 213 -208 139 -286 226 -336 372 -38 110 -42 169 -19 259 25 96
199 561 261 699 64 143 92 185 143 213 l43 23 66 195 c99 293 156 415 233 498
l21 24 3 -26 c2 -15 -4 -59 -13 -99z"/>
</g>
</svg>
